<svg width="18" height="18" viewBox="0 0 18 18" fill="none" xmlns="http://www.w3.org/2000/svg">
<path d="M0 0.75C0 0.335787 0.335786 0 0.75 0C1.16421 0 1.5 0.335787 1.5 0.75V16.5H17.25C17.6642 16.5 18 16.8358 18 17.25C18 17.6642 17.6642 18 17.25 18H0.75C0.335786 18 0 17.6642 0 17.25V0.75ZM16.5 3.75C16.5 3.46592 16.3395 3.20622 16.0854 3.07918C15.8313 2.95214 15.5273 2.97955 15.3 3.15L9.69968 7.35025L5.88029 5.10355C5.66126 4.97471 5.39189 4.96554 5.16461 5.07918L2.5 6.41148V15.5H16.5L16.5 3.75Z" fill="#828282"/>
</svg>
