<svg width="57" height="55" viewBox="0 0 57 55" fill="none" xmlns="http://www.w3.org/2000/svg">
<path fill-rule="evenodd" clip-rule="evenodd" d="M28.3094 8.9043C29.0467 8.9043 29.7538 9.18883 30.2752 9.6953L38.6155 17.7972C39.7012 18.8519 39.7012 20.5618 38.6155 21.6165C37.5298 22.6711 35.7695 22.6711 34.6838 21.6165L28.3094 15.4242L21.9349 21.6165C20.8492 22.6711 19.0889 22.6711 18.0032 21.6165C16.9175 20.5618 16.9175 18.8519 18.0032 17.7972L26.3435 9.69529C26.8649 9.18883 27.572 8.9043 28.3094 8.9043ZM18.0032 34.001C19.0889 32.9464 20.8492 32.9464 21.9349 34.001L28.3094 40.1933L34.6838 34.001C35.7695 32.9464 37.5298 32.9464 38.6155 34.001C39.7012 35.0557 39.7012 36.7656 38.6155 37.8203L30.2752 45.9222C29.1895 46.9769 27.4292 46.9769 26.3435 45.9222L18.0032 37.8203C16.9175 36.7656 16.9175 35.0557 18.0032 34.001Z" fill="#111827"/>
</svg>
