<svg width="56" height="55" viewBox="0 0 56 55" fill="none" xmlns="http://www.w3.org/2000/svg">
<path d="M30.1612 6.68895C29.0755 5.63428 27.3153 5.63428 26.2296 6.68895L6.76886 25.5934C5.68317 26.6481 5.68317 28.358 6.76886 29.4127C7.85456 30.4673 9.61482 30.4673 10.7005 29.4127L11.5148 28.6217V46.4075C11.5148 47.899 12.7595 49.1081 14.2949 49.1081H19.8551C21.3905 49.1081 22.6352 47.899 22.6352 46.4075V41.0062C22.6352 39.5147 23.8799 38.3056 25.4153 38.3056H30.9755C32.5109 38.3056 33.7556 39.5147 33.7556 41.0062V46.4075C33.7556 47.899 35.0003 49.1081 36.5357 49.1081H42.0959C43.6313 49.1081 44.876 47.899 44.876 46.4075V28.6217L45.6903 29.4127C46.776 30.4673 48.5362 30.4673 49.6219 29.4127C50.7076 28.358 50.7076 26.6481 49.6219 25.5934L30.1612 6.68895Z" fill="#828282"/>
</svg>
