<svg width="16" height="15" viewBox="0 0 16 15" fill="none" xmlns="http://www.w3.org/2000/svg">
<path fill-rule="evenodd" clip-rule="evenodd" d="M9.26463 5.25C8.83822 5.25 8.49256 4.91421 8.49256 4.5C8.49256 4.08579 8.83822 3.75 9.26463 3.75H13.125C13.5514 3.75 13.897 4.08579 13.897 4.5V8.25C13.897 8.66421 13.5514 9 13.125 9C12.6986 9 12.3529 8.66421 12.3529 8.25V6.31066L9.03849 9.53033C8.73698 9.82322 8.24813 9.82322 7.94662 9.53033L6.17635 7.81066L2.86195 11.0303C2.56044 11.3232 2.07159 11.3232 1.77008 11.0303C1.46857 10.7374 1.46857 10.2626 1.77008 9.96967L5.63042 6.21967C5.93193 5.92678 6.42078 5.92678 6.72229 6.21967L8.49256 7.93934L11.261 5.25H9.26463Z" fill="#111827"/>
</svg>
