<svg width="16" height="15" viewBox="0 0 16 15" fill="none" xmlns="http://www.w3.org/2000/svg">
<path d="M6.51095 5.56338C6.63047 5.48598 6.7781 5.4168 6.94842 5.36326L6.94843 6.63674C6.7781 6.5832 6.63047 6.51402 6.51095 6.43662C6.22983 6.25457 6.17635 6.08543 6.17635 6C6.17635 5.91457 6.22983 5.74543 6.51095 5.56338Z" fill="#111827"/>
<path d="M8.49257 9.63674L8.49257 8.36326C8.66289 8.4168 8.81052 8.48598 8.93004 8.56338C9.21116 8.74544 9.26464 8.91458 9.26464 9C9.26464 9.08543 9.21116 9.25457 8.93004 9.43662C8.81053 9.51402 8.6629 9.5832 8.49257 9.63674Z" fill="#111827"/>
<path fill-rule="evenodd" clip-rule="evenodd" d="M7.72049 13.5C11.1317 13.5 13.897 10.8137 13.897 7.5C13.897 4.18629 11.1317 1.5 7.72049 1.5C4.30928 1.5 1.54395 4.18629 1.54395 7.5C1.54395 10.8137 4.30928 13.5 7.72049 13.5ZM8.49256 3.75C8.49256 3.33579 8.14689 3 7.72049 3C7.29409 3 6.94842 3.33579 6.94842 3.75V3.81899C6.46851 3.90655 6.02462 4.07555 5.65442 4.3153C5.09724 4.67614 4.63222 5.257 4.63222 6C4.63222 6.743 5.09724 7.32386 5.65442 7.6847C6.02463 7.92445 6.46851 8.09346 6.94843 8.18101L6.94844 9.63693C6.64656 9.54172 6.42277 9.39893 6.29731 9.25847C6.01786 8.94561 5.53023 8.91206 5.20817 9.18352C4.88611 9.45499 4.85157 9.92868 5.13102 10.2415C5.5653 10.7277 6.22233 11.0481 6.94842 11.1807L6.94842 11.25C6.94841 11.6642 7.29407 12 7.72047 12C8.14687 12 8.49255 11.6642 8.49256 11.25L8.49256 11.181C8.97248 11.0935 9.41637 10.9244 9.78658 10.6847C10.3438 10.3239 10.8088 9.743 10.8088 9C10.8088 8.25699 10.3438 7.67614 9.78656 7.3153C9.41636 7.07555 8.97248 6.90655 8.49256 6.819L8.49256 5.36306C8.79444 5.45828 9.01822 5.60107 9.14368 5.74153C9.42314 6.05439 9.91076 6.08794 10.2328 5.81648C10.5549 5.54501 10.5894 5.07132 10.31 4.75847C9.87569 4.27227 9.21865 3.95186 8.49256 3.81927V3.75Z" fill="#111827"/>
</svg>
