<svg width="16" height="15" viewBox="0 0 16 15" fill="none" xmlns="http://www.w3.org/2000/svg">
<path fill-rule="evenodd" clip-rule="evenodd" d="M3.08847 3C3.08847 2.17157 3.77981 1.5 4.63261 1.5H10.8092C11.662 1.5 12.3533 2.17157 12.3533 3V12C12.7797 12 13.1254 12.3358 13.1254 12.75C13.1254 13.1642 12.7797 13.5 12.3533 13.5H10.265C9.71273 13.5 9.26502 13.0523 9.26502 12.5V11.25C9.26502 10.8358 8.91935 10.5 8.49295 10.5H6.94881C6.52241 10.5 6.17675 10.8358 6.17675 11.25V12.5C6.17675 13.0523 5.72903 13.5 5.17675 13.5H3.08847C2.66207 13.5 2.31641 13.1642 2.31641 12.75C2.31641 12.3358 2.66207 12 3.08847 12V3ZM5.40468 3.75H6.94881V5.25H5.40468V3.75ZM6.94881 6.75H5.40468V8.25H6.94881V6.75ZM8.49295 3.75H10.0371V5.25H8.49295V3.75ZM10.0371 6.75H8.49295V8.25H10.0371V6.75Z" fill="#111827"/>
</svg>
