<svg width="16" height="15" viewBox="0 0 16 15" fill="none" xmlns="http://www.w3.org/2000/svg">
<path fill-rule="evenodd" clip-rule="evenodd" d="M7.72066 1.5C8.14706 1.5 8.49273 1.83579 8.49273 2.25V3.24223L11.5458 4.42856L12.7799 3.82918C13.1612 3.64394 13.625 3.79411 13.8157 4.16459C14.0064 4.53507 13.8518 4.98558 13.4704 5.17082L12.5183 5.63325L13.8603 9.69802C13.9534 9.97987 13.8671 10.2885 13.64 10.4859C13.0942 10.9605 12.3715 11.25 11.581 11.25C10.7905 11.25 10.0678 10.9605 9.52196 10.4859C9.29492 10.2885 9.20863 9.97987 9.30168 9.69802L10.626 5.6867L8.49273 4.85777V12H10.0369C10.4633 12 10.8089 12.3358 10.8089 12.75C10.8089 13.1642 10.4633 13.5 10.0369 13.5H5.40445C4.97805 13.5 4.63239 13.1642 4.63239 12.75C4.63239 12.3358 4.97805 12 5.40445 12H6.94859V4.85777L4.8153 5.6867L6.13964 9.69802C6.23269 9.97987 6.1464 10.2885 5.91936 10.4859C5.3735 10.9605 4.65079 11.25 3.86032 11.25C3.06985 11.25 2.34714 10.9605 1.80128 10.4859C1.57424 10.2885 1.48795 9.97987 1.581 9.69802L2.92298 5.63325L1.9709 5.17082C1.58952 4.98558 1.43493 4.53507 1.62562 4.16459C1.81632 3.79411 2.28008 3.64394 2.66146 3.82918L3.89549 4.42856L6.94859 3.24223V2.25C6.94859 1.83579 7.29426 1.5 7.72066 1.5ZM3.86032 7.70586L3.22858 9.61933C3.42128 9.70338 3.6349 9.74998 3.86032 9.74998C4.08574 9.74998 4.29936 9.70338 4.49205 9.61933L3.86032 7.70586ZM11.581 7.70586L10.9493 9.61933C11.142 9.70338 11.3556 9.74998 11.581 9.74998C11.8064 9.74998 12.02 9.70338 12.2127 9.61933L11.581 7.70586Z" fill="#111827"/>
</svg>
