<svg width="17" height="16" viewBox="0 0 17 16" fill="none" xmlns="http://www.w3.org/2000/svg">
<path fill-rule="evenodd" clip-rule="evenodd" d="M7.86612 14.9339C7.37796 14.4597 7.37796 13.6908 7.86612 13.2166L13.2322 8.00389L7.86612 2.79115C7.37796 2.31695 7.37796 1.54812 7.86612 1.07391C8.35427 0.599711 9.14573 0.599711 9.63388 1.07391L15.8839 7.14527C16.372 7.61947 16.372 8.38831 15.8839 8.86251L9.63388 14.9339C9.14573 15.4081 8.35427 15.4081 7.86612 14.9339Z" fill="#DAE4FF"/>
<path fill-rule="evenodd" clip-rule="evenodd" d="M0.366117 14.9339C-0.122038 14.4597 -0.122038 13.6908 0.366117 13.2166L5.73223 8.00389L0.366117 2.79115C-0.122039 2.31695 -0.122039 1.54812 0.366117 1.07391C0.854272 0.599711 1.64573 0.599711 2.13388 1.07391L8.38388 7.14527C8.87204 7.61947 8.87204 8.38831 8.38388 8.86251L2.13388 14.9339C1.64573 15.4081 0.854273 15.4081 0.366117 14.9339Z" fill="#DAE4FF"/>
</svg>
