<svg width="25" height="25" viewBox="0 0 25 25" fill="none" xmlns="http://www.w3.org/2000/svg">
<path fill-rule="evenodd" clip-rule="evenodd" d="M12.8661 19.0728C12.378 18.5986 12.378 17.8297 12.8661 17.3555L18.2322 12.1428L12.8661 6.93007C12.378 6.45587 12.378 5.68703 12.8661 5.21283C13.3543 4.73863 14.1457 4.73863 14.6339 5.21283L20.8839 11.2842C21.372 11.7584 21.372 12.5272 20.8839 13.0014L14.6339 19.0728C14.1457 19.547 13.3543 19.547 12.8661 19.0728Z" fill="#004CC7"/>
<path fill-rule="evenodd" clip-rule="evenodd" d="M5.36612 19.0728C4.87796 18.5986 4.87796 17.8297 5.36612 17.3555L10.7322 12.1428L5.36612 6.93007C4.87796 6.45587 4.87796 5.68703 5.36612 5.21283C5.85427 4.73863 6.64573 4.73863 7.13388 5.21283L13.3839 11.2842C13.872 11.7584 13.872 12.5272 13.3839 13.0014L7.13388 19.0728C6.64573 19.547 5.85427 19.547 5.36612 19.0728Z" fill="#004CC7"/>
</svg>
