
<svg width="57" height="55" viewBox="0 0 57 55" fill="none" xmlns="http://www.w3.org/2000/svg">
<path d="M23.9504 20.8357C24.3807 20.557 24.9123 20.3079 25.5257 20.1151L25.5257 24.7007C24.9123 24.5079 24.3807 24.2588 23.9504 23.9801C22.9381 23.3246 22.7455 22.7155 22.7455 22.4079C22.7455 22.1003 22.9381 21.4913 23.9504 20.8357Z" fill="#111827"/>
<path d="M31.0859 35.5033L31.0859 30.9177C31.6992 31.1105 32.2308 31.3596 32.6611 31.6383C33.6734 32.2938 33.866 32.9029 33.866 33.2105C33.866 33.5181 33.6734 34.1271 32.6612 34.7827C32.2308 35.0614 31.6992 35.3105 31.0859 35.5033Z" fill="#111827"/>
<path fill-rule="evenodd" clip-rule="evenodd" d="M28.3057 49.4143C40.589 49.4143 50.5465 39.7414 50.5465 27.8092C50.5465 15.877 40.589 6.2041 28.3057 6.2041C16.0225 6.2041 6.06494 15.877 6.06494 27.8092C6.06494 39.7414 16.0225 49.4143 28.3057 49.4143ZM31.0858 14.306C31.0858 12.8145 29.8412 11.6054 28.3057 11.6054C26.7703 11.6054 25.5256 12.8145 25.5256 14.306V14.5545C23.7975 14.8697 22.1992 15.4783 20.8661 16.3416C18.8598 17.6409 17.1853 19.7325 17.1853 22.4079C17.1853 25.0834 18.8598 27.1749 20.8661 28.4743C22.1992 29.3376 23.7976 29.9461 25.5257 30.2614L25.5257 35.504C24.4387 35.1611 23.6329 34.6469 23.1811 34.1412C22.1748 33.0146 20.419 32.8938 19.2593 33.8713C18.0996 34.8488 17.9752 36.5545 18.9815 37.681C20.5452 39.4317 22.9111 40.5855 25.5257 41.0629L25.5256 41.3123C25.5256 42.8038 26.7703 44.013 28.3057 44.013C29.8411 44.013 31.0858 42.804 31.0858 41.3124L31.0858 41.0639C32.814 40.7487 34.4123 40.1401 35.7454 39.2768C37.7517 37.9775 39.4262 35.8859 39.4262 33.2105C39.4262 30.535 37.7517 28.4434 35.7454 27.1441C34.4123 26.2808 32.814 25.6723 31.0859 25.357L31.0859 20.1144C32.1729 20.4573 32.9787 20.9714 33.4304 21.4772C34.4367 22.6038 36.1926 22.7246 37.3523 21.7471C38.512 20.7696 38.6363 19.0639 37.6301 17.9373C36.0663 16.1866 33.7004 15.0329 31.0858 14.5554V14.306Z" fill="#111827"/>
</svg>
