<svg width="35" height="35" viewBox="0 0 35 35" fill="none" xmlns="http://www.w3.org/2000/svg">
<path d="M25.7497 24.2912C24.2241 25.8169 20.839 29.2019 18.9128 31.1282C18.1318 31.9092 16.8678 31.9084 16.0867 31.1274C14.1922 29.2329 10.8796 25.9203 9.25058 24.2912C4.69447 19.7351 4.69447 12.3482 9.25058 7.79209C13.8067 3.23597 21.1936 3.23597 25.7497 7.79209C30.3059 12.3482 30.3059 19.7351 25.7497 24.2912Z" stroke="#828282" stroke-width="2" stroke-linecap="round" stroke-linejoin="round"/>
<path d="M21.8752 16.0417C21.8752 18.4579 19.9164 20.4167 17.5002 20.4167C15.0839 20.4167 13.1252 18.4579 13.1252 16.0417C13.1252 13.6254 15.0839 11.6667 17.5002 11.6667C19.9164 11.6667 21.8752 13.6254 21.8752 16.0417Z" stroke="#828282" stroke-width="2" stroke-linecap="round" stroke-linejoin="round"/>
</svg>
