<svg width="56" height="55" viewBox="0 0 56 55" fill="none" xmlns="http://www.w3.org/2000/svg">
<path fill-rule="evenodd" clip-rule="evenodd" d="M32.1149 9.06024C31.0612 4.84385 24.8882 4.84385 23.8345 9.06024C23.1538 11.784 19.9414 13.0765 17.4775 11.6181C13.6632 9.3605 9.29832 13.6007 11.6224 17.3059C13.1237 19.6994 11.7931 22.82 8.98922 23.4812C4.64877 24.5048 4.64878 30.5013 8.98922 31.5249C11.7931 32.1861 13.1237 35.3067 11.6224 37.7002C9.29832 41.4054 13.6632 45.6456 17.4775 43.388C19.9415 41.9295 23.1538 43.2221 23.8345 45.9459C24.8882 50.1622 31.0612 50.1622 32.1149 45.9459C32.7956 43.2221 36.0079 41.9295 38.4719 43.388C42.2861 45.6456 46.6511 41.4054 44.327 37.7002C42.8257 35.3067 44.1563 32.1861 46.9602 31.5249C51.3006 30.5013 51.3006 24.5048 46.9602 23.4812C44.1563 22.82 42.8257 19.6994 44.327 17.3059C46.6511 13.6007 42.2861 9.3605 38.4719 11.6181C36.0079 13.0765 32.7956 11.784 32.1149 9.06024ZM27.9747 35.605C32.5809 35.605 36.315 31.9776 36.315 27.503C36.315 23.0285 32.5809 19.4011 27.9747 19.4011C23.3685 19.4011 19.6344 23.0285 19.6344 27.503C19.6344 31.9776 23.3685 35.605 27.9747 35.605Z" fill="#111827"/>
</svg>
