<svg width="42" height="39" viewBox="0 0 42 39" fill="none" xmlns="http://www.w3.org/2000/svg">
<path d="M18.6617 2.19129C19.4939 -0.296837 23.1175 -0.296835 23.9497 2.19129L26.9233 11.0812C27.2954 12.194 28.3629 12.9473 29.5673 12.9473H39.1898C41.8829 12.9473 43.0027 16.2951 40.8239 17.8328L33.0391 23.3271C32.0647 24.0148 31.657 25.2338 32.0292 26.3465L35.0027 35.2365C35.8349 37.7246 32.9034 39.7936 30.7246 38.2559L22.9398 32.7616C21.9654 32.0739 20.646 32.0739 19.6716 32.7616L11.8869 38.2559C9.70806 39.7936 6.7765 37.7246 7.60873 35.2365L10.5822 26.3465C10.9544 25.2338 10.5467 24.0148 9.57231 23.3271L1.78756 17.8328C-0.391245 16.2951 0.728512 12.9473 3.42166 12.9473H13.0441C14.2486 12.9473 15.316 12.194 15.6882 11.0812L18.6617 2.19129Z" fill="#FFD600"/>
</svg>