<svg width="57" height="55" viewBox="0 0 57 55" fill="none" xmlns="http://www.w3.org/2000/svg">
<path d="M25.6617 11.1913C26.4939 8.70316 30.1175 8.70316 30.9497 11.1913L33.9233 20.0812C34.2954 21.194 35.3629 21.9473 36.5673 21.9473H46.1898C48.8829 21.9473 50.0027 25.2951 47.8239 26.8328L40.0391 32.3271C39.0647 33.0148 38.657 34.2338 39.0292 35.3465L42.0027 44.2365C42.8349 46.7246 39.9034 48.7936 37.7246 47.2559L29.9398 41.7616C28.9654 41.0739 27.646 41.0739 26.6716 41.7616L18.8869 47.2559C16.7081 48.7936 13.7765 46.7246 14.6087 44.2365L17.5822 35.3465C17.9544 34.2338 17.5467 33.0148 16.5723 32.3271L8.78756 26.8328C6.60876 25.2951 7.72851 21.9473 10.4217 21.9473H20.0441C21.2486 21.9473 22.316 21.194 22.6882 20.0812L25.6617 11.1913Z" fill="#BABABA"/>
</svg>