<svg width="54" height="19" viewBox="0 0 54 19" fill="none" xmlns="http://www.w3.org/2000/svg">
<path d="M13.14 0.479999H14.8V9.9H13.14V0.479999ZM3.12 10.84H14.82V15.14H4.78V17.68H3.16V13.9H13.18V12.16H3.12V10.84ZM3.16 17.06H15.42V18.36H3.16V17.06ZM0.94 1.2H2.56V3.82H7.76V1.2H9.4V9.12H0.94V1.2ZM2.56 5.1V7.78H7.76V5.1H2.56ZM31.5984 0.46H33.2584V18.58H31.5984V0.46ZM28.0384 4.6H32.0384V5.96H28.0384V4.6ZM19.0584 12.98H20.3984C23.1984 12.98 25.4984 12.9 28.2584 12.46L28.4184 13.84C25.5784 14.28 23.2584 14.38 20.3984 14.38H19.0584V12.98ZM19.0184 2.1H26.9184V8.58H20.6984V13.3H19.0584V7.22H25.2784V3.48H19.0184V2.1ZM27.9184 9.54H31.9184V10.9H27.9184V9.54ZM45.0569 11.82C48.7369 11.82 50.9969 13.06 50.9969 15.18C50.9969 17.3 48.7369 18.54 45.0569 18.54C41.3769 18.54 39.1169 17.3 39.1169 15.18C39.1169 13.06 41.3769 11.82 45.0569 11.82ZM45.0569 13.16C42.3769 13.16 40.7369 13.9 40.7369 15.18C40.7369 16.48 42.3769 17.22 45.0569 17.22C47.7369 17.22 49.3769 16.48 49.3769 15.18C49.3769 13.9 47.7369 13.16 45.0569 13.16ZM49.1569 0.479999H50.8169V11.34H49.1569V0.479999ZM50.3569 5.02H53.4969V6.42H50.3569V5.02ZM37.5369 1.62H39.1769V4.32H44.2769V1.62H45.8969V9.96H37.5369V1.62ZM39.1769 5.64V8.62H44.2769V5.64H39.1769Z" fill="black"/>
</svg>
